<svg xmlns="http://www.w3.org/2000/svg" viewBox="0 0 40 28" fill="none">
  <rect width="40" height="28" rx="3" fill="#000"/>
  <path d="M13.2 9.5c-.5.6-1.2 1-1.9.9-.1-.7.3-1.5.7-2 .5-.5 1.2-.9 1.9-.9.1.8-.2 1.5-.7 2zm.7 1c-1-.1-1.9.6-2.4.6s-1.3-.5-2.1-.5c-1.1 0-2.1.6-2.6 1.6-1.1 2-.3 4.8.8 6.4.5.8 1.2 1.6 2 1.6.8 0 1.1-.5 2.1-.5 1 0 1.2.5 2.1.5.9 0 1.4-.8 2-1.6.6-.9.9-1.8.9-1.8-1-.4-1.2-1.6-1.2-2.7 0-.9.5-1.9 1.1-2.4-.6-.8-1.6-1.2-2.7-1.2z" fill="#fff"/>
  <text x="27" y="17" text-anchor="middle" font-family="Arial,sans-serif" font-size="6" font-weight="600" fill="#fff">Pay</text>
</svg>
