<svg xmlns="http://www.w3.org/2000/svg" viewBox="0 0 40 28" fill="none">
  <rect width="40" height="28" rx="3" fill="#fff" stroke="#E6E6E6" stroke-width=".5"/>
  <path d="M18.2 14.4v2.7h-.9V9.8h2.3c.6 0 1.1.2 1.5.5.4.4.6.8.6 1.4 0 .6-.2 1-.6 1.4-.4.3-.9.5-1.5.5h-1.4zm0-3.7v2.9h1.4c.4 0 .7-.1 1-.4.3-.3.4-.6.4-.9 0-.4-.1-.7-.4-1-.3-.3-.6-.4-1-.4h-1.4z" fill="#3C4043"/>
  <path d="M24 12c.6 0 1.1.2 1.5.5.4.4.5.8.5 1.4v3.2h-.8v-.7c-.3.6-.9.9-1.5.9-.5 0-1-.2-1.3-.5-.3-.3-.5-.6-.5-1.1 0-.5.2-.9.5-1.1.4-.3.8-.4 1.4-.4.5 0 1 .1 1.3.4v-.2c0-.4-.1-.6-.4-.9-.3-.2-.6-.4-1-.4-.6 0-1 .2-1.3.7l-.7-.5c.5-.6 1.1-.9 1.8-.9zm-1 3.7c0 .3.1.5.3.6.2.2.5.3.7.3.4 0 .8-.2 1.1-.4.3-.3.5-.6.5-1-.3-.3-.7-.4-1.2-.4-.4 0-.7.1-.9.3-.3.1-.5.3-.5.6z" fill="#3C4043"/>
  <path d="M30.2 12.1l-2.8 6.5h-.9l1-2.2-1.8-4.3h.9l1.3 3.3 1.3-3.3h1z" fill="#3C4043"/>
  <path d="M14.5 13.8c0-.3 0-.5-.1-.8H10v1.5h2.6c-.1.6-.4 1-1 1.3v1h1.6c.9-.8 1.3-2 1.3-3z" fill="#4285F4"/>
  <path d="M10 17.2c1.3 0 2.5-.4 3.2-1.2l-1.6-1.2c-.4.3-1 .5-1.7.5-1.3 0-2.3-.8-2.7-2h-1.6v1.3c.8 1.6 2.4 2.6 4.3 2.6z" fill="#34A853"/>
  <path d="M7.3 13.2c-.1-.3-.2-.6-.2-1s.1-.7.2-1V10H5.7c-.4.7-.6 1.5-.6 2.3s.2 1.6.6 2.3l1.6-1.3z" fill="#FBBC04"/>
  <path d="M10 9.3c.7 0 1.3.3 1.8.7l1.4-1.3C12.3 7.9 11.2 7.4 10 7.4c-1.9 0-3.5 1-4.3 2.6L7.3 11c.4-1 1.4-1.7 2.7-1.7z" fill="#EA4335"/>
</svg>
