<svg xmlns="http://www.w3.org/2000/svg" viewBox="0 0 40 28" fill="none">
  <rect width="40" height="28" rx="3" fill="#fff" stroke="#E6E6E6" stroke-width=".5"/>
  <path d="M17.4 18.2h-2.5l1.6-9.4h2.5l-1.6 9.4z" fill="#1A1F71"/>
  <path d="M25.3 9c-.5-.2-1.3-.4-2.2-.4-2.5 0-4.2 1.3-4.2 3.1 0 1.4 1.2 2.1 2.2 2.6 1 .5 1.3.8 1.3 1.2 0 .6-.8 1-1.5 1-.9 0-1.5-.2-2.3-.5l-.3-.2-.3 2c.6.3 1.6.5 2.7.5 2.6 0 4.3-1.3 4.3-3.2 0-1.1-.6-1.9-2.1-2.5-.9-.4-1.4-.7-1.4-1.2 0-.4.5-.8 1.4-.8.8 0 1.4.2 1.9.4l.2.1.3-1.8z" fill="#1A1F71"/>
  <path d="M29.5 8.8h-1.9c-.6 0-1 .2-1.3.8l-3.6 8.6h2.6l.5-1.4h3.1l.3 1.4h2.3L29.5 8.8zm-3 6c.2-.5 1-2.5 1-2.5l.3-.8.2.7.6 2.6h-2.1z" fill="#1A1F71"/>
  <path d="M14 8.8l-2.4 6.4-.3-1.3c-.4-1.5-1.8-3.1-3.3-3.9l2.2 8.2h2.6l3.9-9.4H14z" fill="#1A1F71"/>
  <path d="M9.7 8.8H5.8l-.1.2c3.1.8 5.1 2.7 6 5l-.9-4.3c-.1-.6-.6-.8-1.1-.9z" fill="#F7A600"/>
</svg>
